<?xml version="1.0" encoding="UTF-8" standalone="no"?>
<!DOCTYPE svg PUBLIC "-//W3C//DTD SVG 1.1//EN"
 "http://www.w3.org/Graphics/SVG/1.1/DTD/svg11.dtd">
<!-- Generated by graphviz version 2.26.3 (20100126.1600)
 -->
<!-- Title: G Pages: 1 -->
<svg width="369pt" height="390pt"
 viewBox="0.00 0.00 369.00 390.00" xmlns="http://www.w3.org/2000/svg" xmlns:xlink="http://www.w3.org/1999/xlink">
<g id="graph1" class="graph" transform="scale(1 1) rotate(0) translate(4 386)">
<title>G</title>
<polygon fill="white" stroke="white" points="-4,5 -4,-386 366,-386 366,5 -4,5"/>
<!-- ArclinkRequest -->
<g id="node1" class="node"><title>ArclinkRequest</title>
<polygon fill="#fcf2e3" stroke="#fcf2e3" stroke-width="0.5" points="229,-309.5 27,-309.5 15,-297.5 15,-150.5 27,-138.5 229,-138.5 241,-150.5 241,-297.5 229,-309.5"/>
<path fill="#fcf2e3" stroke="#fcf2e3" stroke-width="0.5" d="M27,-309.5C21,-309.5 15,-303.5 15,-297.5"/>
<path fill="#fcf2e3" stroke="#fcf2e3" stroke-width="0.5" d="M15,-150.5C15,-144.5 21,-138.5 27,-138.5"/>
<path fill="#fcf2e3" stroke="#fcf2e3" stroke-width="0.5" d="M229,-138.5C235,-138.5 241,-144.5 241,-150.5"/>
<path fill="#fcf2e3" stroke="#fcf2e3" stroke-width="0.5" d="M241,-297.5C241,-303.5 235,-309.5 229,-309.5"/>
<polyline fill="none" stroke="#000000" stroke-width="0.5" points="229,-309.5 27,-309.5 "/>
<path fill="none" stroke="#000000" stroke-width="0.5" d="M27,-309.5C21,-309.5 15,-303.5 15,-297.5"/>
<polyline fill="none" stroke="#000000" stroke-width="0.5" points="15,-297.5 15,-150.5 "/>
<path fill="none" stroke="#000000" stroke-width="0.5" d="M15,-150.5C15,-144.5 21,-138.5 27,-138.5"/>
<polyline fill="none" stroke="#000000" stroke-width="0.5" points="27,-138.5 229,-138.5 "/>
<path fill="none" stroke="#000000" stroke-width="0.5" d="M229,-138.5C235,-138.5 241,-144.5 241,-150.5"/>
<polyline fill="none" stroke="#000000" stroke-width="0.5" points="241,-150.5 241,-297.5 "/>
<path fill="none" stroke="#000000" stroke-width="0.5" d="M241,-297.5C241,-303.5 235,-309.5 229,-309.5"/>
<text text-anchor="start" x="96" y="-296.633" font-family="Verdana" font-size="8.00">ArclinkRequest</text>
<text text-anchor="start" x="25" y="-286.133" font-family="Verdana" font-size="8.00" fill="#8b0000">+ publicID: string</text>
<text text-anchor="start" x="25" y="-276.133" font-family="Verdana" font-size="8.00" fill="#8b0000">+ requestID: string</text>
<text text-anchor="start" x="25" y="-266.133" font-family="Verdana" font-size="8.00" fill="#8b0000">+ userID: string</text>
<text text-anchor="start" x="25" y="-256.133" font-family="Verdana" font-size="8.00" fill="#8b0000">+ userIP: string</text>
<text text-anchor="start" x="25" y="-246.133" font-family="Verdana" font-size="8.00" fill="#8b0000">+ clientID: string</text>
<text text-anchor="start" x="25" y="-236.133" font-family="Verdana" font-size="8.00" fill="#8b0000">+ clientIP: string</text>
<text text-anchor="start" x="25" y="-226.133" font-family="Verdana" font-size="8.00" fill="#8b0000">+ type: string</text>
<text text-anchor="start" x="25" y="-216.133" font-family="Verdana" font-size="8.00" fill="#8b0000">+ created: datetime</text>
<text text-anchor="start" x="25" y="-206.133" font-family="Verdana" font-size="8.00" fill="#8b0000">+ status: string</text>
<text text-anchor="start" x="25" y="-196.133" font-family="Verdana" font-size="8.00" fill="#8b0000">+ message: string</text>
<text text-anchor="start" x="25" y="-186.133" font-family="Verdana" font-size="8.00" fill="#8b0000">+ label: string</text>
<text text-anchor="start" x="25" y="-176.133" font-family="Verdana" font-size="8.00" fill="#8b0000">+ header: string</text>
<text text-anchor="start" x="25" y="-166.133" font-family="Verdana" font-size="8.00" fill="#8b0000">+ summary: ArclinkRequestSummary &#160;[0..1]</text>
<text text-anchor="start" x="25" y="-156.133" font-family="Verdana" font-size="8.00" fill="#8b0000">+ arclinkStatusLine: ArclinkStatusLine [0..*]</text>
<text text-anchor="start" x="25" y="-146.133" font-family="Verdana" font-size="8.00" fill="#8b0000">+ arclinkRequestLine: ArclinkRequestLine [0..*]</text>
</g>
<!-- ArclinkStatusLine -->
<g id="node2" class="node"><title>ArclinkStatusLine</title>
<polygon fill="#fcf2e3" stroke="#fcf2e3" stroke-width="0.5" points="92,-86.5 12,-86.5 2.95226e-14,-74.5 6.00459e-15,-27.5 12,-15.5 92,-15.5 104,-27.5 104,-74.5 92,-86.5"/>
<path fill="#fcf2e3" stroke="#fcf2e3" stroke-width="0.5" d="M12,-86.5C6,-86.5 3.25248e-14,-80.5 2.95226e-14,-74.5"/>
<path fill="#fcf2e3" stroke="#fcf2e3" stroke-width="0.5" d="M6.00459e-15,-27.5C3.00229e-15,-21.5 6,-15.5 12,-15.5"/>
<path fill="#fcf2e3" stroke="#fcf2e3" stroke-width="0.5" d="M92,-15.5C98,-15.5 104,-21.5 104,-27.5"/>
<path fill="#fcf2e3" stroke="#fcf2e3" stroke-width="0.5" d="M104,-74.5C104,-80.5 98,-86.5 92,-86.5"/>
<polyline fill="none" stroke="#000000" stroke-width="0.5" points="92,-86.5 12,-86.5 "/>
<path fill="none" stroke="#000000" stroke-width="0.5" d="M12,-86.5C6,-86.5 3.25248e-14,-80.5 2.95226e-14,-74.5"/>
<polyline fill="none" stroke="#000000" stroke-width="0.5" points="2.95226e-14,-74.5 6.00459e-15,-27.5 "/>
<path fill="none" stroke="#000000" stroke-width="0.5" d="M6.00459e-15,-27.5C3.00229e-15,-21.5 6,-15.5 12,-15.5"/>
<polyline fill="none" stroke="#000000" stroke-width="0.5" points="12,-15.5 92,-15.5 "/>
<path fill="none" stroke="#000000" stroke-width="0.5" d="M92,-15.5C98,-15.5 104,-21.5 104,-27.5"/>
<polyline fill="none" stroke="#000000" stroke-width="0.5" points="104,-27.5 104,-74.5 "/>
<path fill="none" stroke="#000000" stroke-width="0.5" d="M104,-74.5C104,-80.5 98,-86.5 92,-86.5"/>
<text text-anchor="start" x="15" y="-73.6333" font-family="Verdana" font-size="8.00">ArclinkStatusLine</text>
<text text-anchor="start" x="10" y="-63.1333" font-family="Verdana" font-size="8.00" fill="#8b0000">+ type: string</text>
<text text-anchor="start" x="10" y="-53.1333" font-family="Verdana" font-size="8.00" fill="#8b0000">+ status: string</text>
<text text-anchor="start" x="10" y="-43.1333" font-family="Verdana" font-size="8.00" fill="#8b0000">+ size: int &#160;[0..1]</text>
<text text-anchor="start" x="10" y="-33.1333" font-family="Verdana" font-size="8.00" fill="#8b0000">+ message: string</text>
<text text-anchor="start" x="10" y="-23.1333" font-family="Verdana" font-size="8.00" fill="#8b0000">+ volumeID: string</text>
</g>
<!-- ArclinkRequest&#45;&gt;ArclinkStatusLine -->
<g id="edge4" class="edge"><title>ArclinkRequest&#45;&gt;ArclinkStatusLine</title>
<path fill="none" stroke="#000000" d="M90.334,-138.26C83.9064,-123.629 77.4661,-108.969 71.7487,-95.9543"/>
<polygon fill="#000000" stroke="#000000" points="74.9504,-94.5402 67.7238,-86.7924 68.5415,-97.3557 74.9504,-94.5402"/>
</g>
<!-- ArclinkRequestLine -->
<g id="node3" class="node"><title>ArclinkRequestLine</title>
<polygon fill="#fcf2e3" stroke="#fcf2e3" stroke-width="0.5" points="274,-101.5 134,-101.5 122,-89.5 122,-12.5 134,-0.5 274,-0.5 286,-12.5 286,-89.5 274,-101.5"/>
<path fill="#fcf2e3" stroke="#fcf2e3" stroke-width="0.5" d="M134,-101.5C128,-101.5 122,-95.5 122,-89.5"/>
<path fill="#fcf2e3" stroke="#fcf2e3" stroke-width="0.5" d="M122,-12.5C122,-6.5 128,-0.5 134,-0.5"/>
<path fill="#fcf2e3" stroke="#fcf2e3" stroke-width="0.5" d="M274,-0.5C280,-0.5 286,-6.5 286,-12.5"/>
<path fill="#fcf2e3" stroke="#fcf2e3" stroke-width="0.5" d="M286,-89.5C286,-95.5 280,-101.5 274,-101.5"/>
<polyline fill="none" stroke="#000000" stroke-width="0.5" points="274,-101.5 134,-101.5 "/>
<path fill="none" stroke="#000000" stroke-width="0.5" d="M134,-101.5C128,-101.5 122,-95.5 122,-89.5"/>
<polyline fill="none" stroke="#000000" stroke-width="0.5" points="122,-89.5 122,-12.5 "/>
<path fill="none" stroke="#000000" stroke-width="0.5" d="M122,-12.5C122,-6.5 128,-0.5 134,-0.5"/>
<polyline fill="none" stroke="#000000" stroke-width="0.5" points="134,-0.5 274,-0.5 "/>
<path fill="none" stroke="#000000" stroke-width="0.5" d="M274,-0.5C280,-0.5 286,-6.5 286,-12.5"/>
<polyline fill="none" stroke="#000000" stroke-width="0.5" points="286,-12.5 286,-89.5 "/>
<path fill="none" stroke="#000000" stroke-width="0.5" d="M286,-89.5C286,-95.5 280,-101.5 274,-101.5"/>
<text text-anchor="start" x="163.5" y="-88.6333" font-family="Verdana" font-size="8.00">ArclinkRequestLine</text>
<text text-anchor="start" x="132" y="-78.1333" font-family="Verdana" font-size="8.00" fill="#8b0000">+ start: datetime</text>
<text text-anchor="start" x="132" y="-68.1333" font-family="Verdana" font-size="8.00" fill="#8b0000">+ end: datetime</text>
<text text-anchor="start" x="132" y="-58.1333" font-family="Verdana" font-size="8.00" fill="#8b0000">+ streamID: WaveformStreamID</text>
<text text-anchor="start" x="132" y="-48.1333" font-family="Verdana" font-size="8.00" fill="#8b0000">+ restricted: boolean &#160;[0..1]</text>
<text text-anchor="start" x="132" y="-38.1333" font-family="Verdana" font-size="8.00" fill="#8b0000">+ shared: boolean &#160;[0..1]</text>
<text text-anchor="start" x="132" y="-28.1333" font-family="Verdana" font-size="8.00" fill="#8b0000">+ netClass: string</text>
<text text-anchor="start" x="132" y="-18.1333" font-family="Verdana" font-size="8.00" fill="#8b0000">+ constraints: string</text>
<text text-anchor="start" x="132" y="-8.13333" font-family="Verdana" font-size="8.00" fill="#8b0000">+ status: ArclinkStatusLine</text>
</g>
<!-- ArclinkRequest&#45;&gt;ArclinkRequestLine -->
<g id="edge6" class="edge"><title>ArclinkRequest&#45;&gt;ArclinkRequestLine</title>
<path fill="none" stroke="#000000" d="M165.666,-138.26C169.723,-129.026 173.785,-119.779 177.667,-110.943"/>
<polygon fill="#000000" stroke="#000000" points="180.982,-112.098 181.8,-101.535 174.573,-109.283 180.982,-112.098"/>
</g>
<!-- ArclinkUser -->
<g id="node4" class="node"><title>ArclinkUser</title>
<polygon fill="#fcf2e3" stroke="#fcf2e3" stroke-width="0.5" points="349,-254.5 271,-254.5 259,-242.5 259,-205.5 271,-193.5 349,-193.5 361,-205.5 361,-242.5 349,-254.5"/>
<path fill="#fcf2e3" stroke="#fcf2e3" stroke-width="0.5" d="M271,-254.5C265,-254.5 259,-248.5 259,-242.5"/>
<path fill="#fcf2e3" stroke="#fcf2e3" stroke-width="0.5" d="M259,-205.5C259,-199.5 265,-193.5 271,-193.5"/>
<path fill="#fcf2e3" stroke="#fcf2e3" stroke-width="0.5" d="M349,-193.5C355,-193.5 361,-199.5 361,-205.5"/>
<path fill="#fcf2e3" stroke="#fcf2e3" stroke-width="0.5" d="M361,-242.5C361,-248.5 355,-254.5 349,-254.5"/>
<polyline fill="none" stroke="#000000" stroke-width="0.5" points="349,-254.5 271,-254.5 "/>
<path fill="none" stroke="#000000" stroke-width="0.5" d="M271,-254.5C265,-254.5 259,-248.5 259,-242.5"/>
<polyline fill="none" stroke="#000000" stroke-width="0.5" points="259,-242.5 259,-205.5 "/>
<path fill="none" stroke="#000000" stroke-width="0.5" d="M259,-205.5C259,-199.5 265,-193.5 271,-193.5"/>
<polyline fill="none" stroke="#000000" stroke-width="0.5" points="271,-193.5 349,-193.5 "/>
<path fill="none" stroke="#000000" stroke-width="0.5" d="M349,-193.5C355,-193.5 361,-199.5 361,-205.5"/>
<polyline fill="none" stroke="#000000" stroke-width="0.5" points="361,-205.5 361,-242.5 "/>
<path fill="none" stroke="#000000" stroke-width="0.5" d="M361,-242.5C361,-248.5 355,-254.5 349,-254.5"/>
<text text-anchor="start" x="286" y="-241.633" font-family="Verdana" font-size="8.00">ArclinkUser</text>
<text text-anchor="start" x="269" y="-231.133" font-family="Verdana" font-size="8.00" fill="#8b0000">+ publicID: string</text>
<text text-anchor="start" x="269" y="-221.133" font-family="Verdana" font-size="8.00" fill="#8b0000">+ name: string</text>
<text text-anchor="start" x="269" y="-211.133" font-family="Verdana" font-size="8.00" fill="#8b0000">+ email: string</text>
<text text-anchor="start" x="269" y="-201.133" font-family="Verdana" font-size="8.00" fill="#8b0000">+ password: string</text>
</g>
<!-- ArclinkLog -->
<g id="node5" class="node"><title>ArclinkLog</title>
<polygon fill="#fcf2e3" stroke="#fcf2e3" stroke-width="0.5" points="237,-382 201,-382 189,-370 189,-358 201,-346 237,-346 249,-358 249,-370 237,-382"/>
<path fill="#fcf2e3" stroke="#fcf2e3" stroke-width="0.5" d="M201,-382C195,-382 189,-376 189,-370"/>
<path fill="#fcf2e3" stroke="#fcf2e3" stroke-width="0.5" d="M189,-358C189,-352 195,-346 201,-346"/>
<path fill="#fcf2e3" stroke="#fcf2e3" stroke-width="0.5" d="M237,-346C243,-346 249,-352 249,-358"/>
<path fill="#fcf2e3" stroke="#fcf2e3" stroke-width="0.5" d="M249,-370C249,-376 243,-382 237,-382"/>
<polyline fill="none" stroke="#000000" stroke-width="0.5" points="237,-382 201,-382 "/>
<path fill="none" stroke="#000000" stroke-width="0.5" d="M201,-382C195,-382 189,-376 189,-370"/>
<polyline fill="none" stroke="#000000" stroke-width="0.5" points="189,-370 189,-358 "/>
<path fill="none" stroke="#000000" stroke-width="0.5" d="M189,-358C189,-352 195,-346 201,-346"/>
<polyline fill="none" stroke="#000000" stroke-width="0.5" points="201,-346 237,-346 "/>
<path fill="none" stroke="#000000" stroke-width="0.5" d="M237,-346C243,-346 249,-352 249,-358"/>
<polyline fill="none" stroke="#000000" stroke-width="0.5" points="249,-358 249,-370 "/>
<path fill="none" stroke="#000000" stroke-width="0.5" d="M249,-370C249,-376 243,-382 237,-382"/>
<text text-anchor="middle" x="219" y="-362.3" font-family="Verdana" font-size="8.00">ArclinkLog</text>
</g>
<!-- ArclinkLog&#45;&gt;ArclinkRequest -->
<g id="edge2" class="edge"><title>ArclinkLog&#45;&gt;ArclinkRequest</title>
<path fill="none" stroke="#000000" d="M207.29,-345.984C202.29,-338.292 196.043,-328.681 189.263,-318.251"/>
<polygon fill="#000000" stroke="#000000" points="192.11,-316.208 183.725,-309.731 186.241,-320.023 192.11,-316.208"/>
</g>
<!-- ArclinkLog&#45;&gt;ArclinkUser -->
<g id="edge8" class="edge"><title>ArclinkLog&#45;&gt;ArclinkUser</title>
<path fill="none" stroke="#000000" d="M230.71,-345.984C244.225,-325.193 266.85,-290.384 284.481,-263.26"/>
<polygon fill="#000000" stroke="#000000" points="287.497,-265.043 290.012,-254.751 281.628,-261.228 287.497,-265.043"/>
</g>
</g>
</svg>
