<?xml version="1.0" encoding="UTF-8" standalone="no"?>
<!DOCTYPE svg PUBLIC "-//W3C//DTD SVG 1.1//EN"
 "http://www.w3.org/Graphics/SVG/1.1/DTD/svg11.dtd">
<!-- Generated by graphviz version 2.26.3 (20100126.1600)
 -->
<!-- Title: G Pages: 1 -->
<svg width="412pt" height="358pt"
 viewBox="0.00 0.00 412.00 358.00" xmlns="http://www.w3.org/2000/svg" xmlns:xlink="http://www.w3.org/1999/xlink">
<g id="graph1" class="graph" transform="scale(1 1) rotate(0) translate(4 354)">
<title>G</title>
<polygon fill="white" stroke="white" points="-4,5 -4,-354 409,-354 409,5 -4,5"/>
<!-- ParameterSet -->
<g id="node1" class="node"><title>ParameterSet</title>
<polygon fill="#fcf2e3" stroke="#fcf2e3" stroke-width="0.5" points="196,-277.5 66,-277.5 54,-265.5 54,-208.5 66,-196.5 196,-196.5 208,-208.5 208,-265.5 196,-277.5"/>
<path fill="#fcf2e3" stroke="#fcf2e3" stroke-width="0.5" d="M66,-277.5C60,-277.5 54,-271.5 54,-265.5"/>
<path fill="#fcf2e3" stroke="#fcf2e3" stroke-width="0.5" d="M54,-208.5C54,-202.5 60,-196.5 66,-196.5"/>
<path fill="#fcf2e3" stroke="#fcf2e3" stroke-width="0.5" d="M196,-196.5C202,-196.5 208,-202.5 208,-208.5"/>
<path fill="#fcf2e3" stroke="#fcf2e3" stroke-width="0.5" d="M208,-265.5C208,-271.5 202,-277.5 196,-277.5"/>
<polyline fill="none" stroke="#000000" stroke-width="0.5" points="196,-277.5 66,-277.5 "/>
<path fill="none" stroke="#000000" stroke-width="0.5" d="M66,-277.5C60,-277.5 54,-271.5 54,-265.5"/>
<polyline fill="none" stroke="#000000" stroke-width="0.5" points="54,-265.5 54,-208.5 "/>
<path fill="none" stroke="#000000" stroke-width="0.5" d="M54,-208.5C54,-202.5 60,-196.5 66,-196.5"/>
<polyline fill="none" stroke="#000000" stroke-width="0.5" points="66,-196.5 196,-196.5 "/>
<path fill="none" stroke="#000000" stroke-width="0.5" d="M196,-196.5C202,-196.5 208,-202.5 208,-208.5"/>
<polyline fill="none" stroke="#000000" stroke-width="0.5" points="208,-208.5 208,-265.5 "/>
<path fill="none" stroke="#000000" stroke-width="0.5" d="M208,-265.5C208,-271.5 202,-277.5 196,-277.5"/>
<text text-anchor="start" x="101.5" y="-264.633" font-family="Verdana" font-size="8.00">ParameterSet</text>
<text text-anchor="start" x="64" y="-254.133" font-family="Verdana" font-size="8.00" fill="#8b0000">+ publicID: string</text>
<text text-anchor="start" x="64" y="-244.133" font-family="Verdana" font-size="8.00" fill="#8b0000">+ baseID: string</text>
<text text-anchor="start" x="64" y="-234.133" font-family="Verdana" font-size="8.00" fill="#8b0000">+ moduleID: string</text>
<text text-anchor="start" x="64" y="-224.133" font-family="Verdana" font-size="8.00" fill="#8b0000">+ created: datetime &#160;[0..1]</text>
<text text-anchor="start" x="64" y="-214.133" font-family="Verdana" font-size="8.00" fill="#8b0000">+ parameter: Parameter [0..*]</text>
<text text-anchor="start" x="64" y="-204.133" font-family="Verdana" font-size="8.00" fill="#8b0000">+ comment: Comment [0..*]</text>
</g>
<!-- Parameter -->
<g id="node2" class="node"><title>Parameter</title>
<polygon fill="#fcf2e3" stroke="#fcf2e3" stroke-width="0.5" points="140,-154.5 18,-154.5 6,-142.5 6,-105.5 18,-93.5 140,-93.5 152,-105.5 152,-142.5 140,-154.5"/>
<path fill="#fcf2e3" stroke="#fcf2e3" stroke-width="0.5" d="M18,-154.5C12,-154.5 6,-148.5 6,-142.5"/>
<path fill="#fcf2e3" stroke="#fcf2e3" stroke-width="0.5" d="M6,-105.5C6,-99.5 12,-93.5 18,-93.5"/>
<path fill="#fcf2e3" stroke="#fcf2e3" stroke-width="0.5" d="M140,-93.5C146,-93.5 152,-99.5 152,-105.5"/>
<path fill="#fcf2e3" stroke="#fcf2e3" stroke-width="0.5" d="M152,-142.5C152,-148.5 146,-154.5 140,-154.5"/>
<polyline fill="none" stroke="#000000" stroke-width="0.5" points="140,-154.5 18,-154.5 "/>
<path fill="none" stroke="#000000" stroke-width="0.5" d="M18,-154.5C12,-154.5 6,-148.5 6,-142.5"/>
<polyline fill="none" stroke="#000000" stroke-width="0.5" points="6,-142.5 6,-105.5 "/>
<path fill="none" stroke="#000000" stroke-width="0.5" d="M6,-105.5C6,-99.5 12,-93.5 18,-93.5"/>
<polyline fill="none" stroke="#000000" stroke-width="0.5" points="18,-93.5 140,-93.5 "/>
<path fill="none" stroke="#000000" stroke-width="0.5" d="M140,-93.5C146,-93.5 152,-99.5 152,-105.5"/>
<polyline fill="none" stroke="#000000" stroke-width="0.5" points="152,-105.5 152,-142.5 "/>
<path fill="none" stroke="#000000" stroke-width="0.5" d="M152,-142.5C152,-148.5 146,-154.5 140,-154.5"/>
<text text-anchor="start" x="56.5" y="-141.633" font-family="Verdana" font-size="8.00">Parameter</text>
<text text-anchor="start" x="16" y="-131.133" font-family="Verdana" font-size="8.00" fill="#8b0000">+ publicID: string</text>
<text text-anchor="start" x="16" y="-121.133" font-family="Verdana" font-size="8.00" fill="#8b0000">+ name: string</text>
<text text-anchor="start" x="16" y="-111.133" font-family="Verdana" font-size="8.00" fill="#8b0000">+ value: string</text>
<text text-anchor="start" x="16" y="-101.133" font-family="Verdana" font-size="8.00" fill="#8b0000">+ comment: Comment [0..*]</text>
</g>
<!-- ParameterSet&#45;&gt;Parameter -->
<g id="edge4" class="edge"><title>ParameterSet&#45;&gt;Parameter</title>
<path fill="none" stroke="#000000" d="M112.227,-196.204C107.416,-185.75 102.246,-174.516 97.4516,-164.097"/>
<polygon fill="#000000" stroke="#000000" points="100.535,-162.424 93.1749,-154.803 94.1758,-165.351 100.535,-162.424"/>
</g>
<!-- Comment -->
<g id="node3" class="node"><title>Comment</title>
<polygon fill="#fcf2e3" stroke="#fcf2e3" stroke-width="0.5" points="162,-51.5 12,-51.5 6.52027e-14,-39.5 2.00624e-14,-12.5 12,-0.5 162,-0.5 174,-12.5 174,-39.5 162,-51.5"/>
<path fill="#fcf2e3" stroke="#fcf2e3" stroke-width="0.5" d="M12,-51.5C6,-51.5 7.52339e-14,-45.5 6.52027e-14,-39.5"/>
<path fill="#fcf2e3" stroke="#fcf2e3" stroke-width="0.5" d="M2.00624e-14,-12.5C1.00312e-14,-6.5 6,-0.5 12,-0.5"/>
<path fill="#fcf2e3" stroke="#fcf2e3" stroke-width="0.5" d="M162,-0.5C168,-0.5 174,-6.5 174,-12.5"/>
<path fill="#fcf2e3" stroke="#fcf2e3" stroke-width="0.5" d="M174,-39.5C174,-45.5 168,-51.5 162,-51.5"/>
<polyline fill="none" stroke="#000000" stroke-width="0.5" points="162,-51.5 12,-51.5 "/>
<path fill="none" stroke="#000000" stroke-width="0.5" d="M12,-51.5C6,-51.5 7.52339e-14,-45.5 6.52027e-14,-39.5"/>
<polyline fill="none" stroke="#000000" stroke-width="0.5" points="6.52027e-14,-39.5 2.00624e-14,-12.5 "/>
<path fill="none" stroke="#000000" stroke-width="0.5" d="M2.00624e-14,-12.5C1.00312e-14,-6.5 6,-0.5 12,-0.5"/>
<polyline fill="none" stroke="#000000" stroke-width="0.5" points="12,-0.5 162,-0.5 "/>
<path fill="none" stroke="#000000" stroke-width="0.5" d="M162,-0.5C168,-0.5 174,-6.5 174,-12.5"/>
<polyline fill="none" stroke="#000000" stroke-width="0.5" points="174,-12.5 174,-39.5 "/>
<path fill="none" stroke="#000000" stroke-width="0.5" d="M174,-39.5C174,-45.5 168,-51.5 162,-51.5"/>
<text text-anchor="start" x="65.5" y="-38.6333" font-family="Verdana" font-size="8.00">Comment</text>
<text text-anchor="start" x="10" y="-28.1333" font-family="Verdana" font-size="8.00" fill="#8b0000">+ text: string</text>
<text text-anchor="start" x="10" y="-18.1333" font-family="Verdana" font-size="8.00" fill="#8b0000">+ id: string</text>
<text text-anchor="start" x="10" y="-8.13333" font-family="Verdana" font-size="8.00" fill="#8b0000">+ creationInfo: CreationInfo &#160;[0..1]</text>
</g>
<!-- ParameterSet&#45;&gt;Comment -->
<g id="edge8" class="edge"><title>ParameterSet&#45;&gt;Comment</title>
<path fill="none" stroke="#000000" d="M152.294,-196.489C165.49,-165.57 177.127,-122.551 161,-88 155.686,-76.6153 147.139,-66.5819 137.709,-58.0846"/>
<polygon fill="#000000" stroke="#000000" points="139.907,-55.3601 130.001,-51.6027 135.402,-60.7176 139.907,-55.3601"/>
</g>
<!-- Parameter&#45;&gt;Comment -->
<g id="edge6" class="edge"><title>Parameter&#45;&gt;Comment</title>
<path fill="none" stroke="#000000" d="M81.5093,-93.2611C82.3272,-83.2413 83.2422,-72.0327 84.0872,-61.6821"/>
<polygon fill="#000000" stroke="#000000" points="87.5773,-61.945 84.9026,-51.6933 80.6005,-61.3754 87.5773,-61.945"/>
</g>
<!-- ConfigModule -->
<g id="node4" class="node"><title>ConfigModule</title>
<polygon fill="#fcf2e3" stroke="#fcf2e3" stroke-width="0.5" points="392,-272.5 238,-272.5 226,-260.5 226,-213.5 238,-201.5 392,-201.5 404,-213.5 404,-260.5 392,-272.5"/>
<path fill="#fcf2e3" stroke="#fcf2e3" stroke-width="0.5" d="M238,-272.5C232,-272.5 226,-266.5 226,-260.5"/>
<path fill="#fcf2e3" stroke="#fcf2e3" stroke-width="0.5" d="M226,-213.5C226,-207.5 232,-201.5 238,-201.5"/>
<path fill="#fcf2e3" stroke="#fcf2e3" stroke-width="0.5" d="M392,-201.5C398,-201.5 404,-207.5 404,-213.5"/>
<path fill="#fcf2e3" stroke="#fcf2e3" stroke-width="0.5" d="M404,-260.5C404,-266.5 398,-272.5 392,-272.5"/>
<polyline fill="none" stroke="#000000" stroke-width="0.5" points="392,-272.5 238,-272.5 "/>
<path fill="none" stroke="#000000" stroke-width="0.5" d="M238,-272.5C232,-272.5 226,-266.5 226,-260.5"/>
<polyline fill="none" stroke="#000000" stroke-width="0.5" points="226,-260.5 226,-213.5 "/>
<path fill="none" stroke="#000000" stroke-width="0.5" d="M226,-213.5C226,-207.5 232,-201.5 238,-201.5"/>
<polyline fill="none" stroke="#000000" stroke-width="0.5" points="238,-201.5 392,-201.5 "/>
<path fill="none" stroke="#000000" stroke-width="0.5" d="M392,-201.5C398,-201.5 404,-207.5 404,-213.5"/>
<polyline fill="none" stroke="#000000" stroke-width="0.5" points="404,-213.5 404,-260.5 "/>
<path fill="none" stroke="#000000" stroke-width="0.5" d="M404,-260.5C404,-266.5 398,-272.5 392,-272.5"/>
<text text-anchor="start" x="286" y="-259.633" font-family="Verdana" font-size="8.00">ConfigModule</text>
<text text-anchor="start" x="236" y="-249.133" font-family="Verdana" font-size="8.00" fill="#8b0000">+ publicID: string</text>
<text text-anchor="start" x="236" y="-239.133" font-family="Verdana" font-size="8.00" fill="#8b0000">+ name: string</text>
<text text-anchor="start" x="236" y="-229.133" font-family="Verdana" font-size="8.00" fill="#8b0000">+ parameterSetID: string</text>
<text text-anchor="start" x="236" y="-219.133" font-family="Verdana" font-size="8.00" fill="#8b0000">+ enabled: boolean</text>
<text text-anchor="start" x="236" y="-209.133" font-family="Verdana" font-size="8.00" fill="#8b0000">+ configStation: ConfigStation [0..*]</text>
</g>
<!-- ConfigStation -->
<g id="node5" class="node"><title>ConfigStation</title>
<polygon fill="#fcf2e3" stroke="#fcf2e3" stroke-width="0.5" points="362,-159.5 268,-159.5 256,-147.5 256,-100.5 268,-88.5 362,-88.5 374,-100.5 374,-147.5 362,-159.5"/>
<path fill="#fcf2e3" stroke="#fcf2e3" stroke-width="0.5" d="M268,-159.5C262,-159.5 256,-153.5 256,-147.5"/>
<path fill="#fcf2e3" stroke="#fcf2e3" stroke-width="0.5" d="M256,-100.5C256,-94.5 262,-88.5 268,-88.5"/>
<path fill="#fcf2e3" stroke="#fcf2e3" stroke-width="0.5" d="M362,-88.5C368,-88.5 374,-94.5 374,-100.5"/>
<path fill="#fcf2e3" stroke="#fcf2e3" stroke-width="0.5" d="M374,-147.5C374,-153.5 368,-159.5 362,-159.5"/>
<polyline fill="none" stroke="#000000" stroke-width="0.5" points="362,-159.5 268,-159.5 "/>
<path fill="none" stroke="#000000" stroke-width="0.5" d="M268,-159.5C262,-159.5 256,-153.5 256,-147.5"/>
<polyline fill="none" stroke="#000000" stroke-width="0.5" points="256,-147.5 256,-100.5 "/>
<path fill="none" stroke="#000000" stroke-width="0.5" d="M256,-100.5C256,-94.5 262,-88.5 268,-88.5"/>
<polyline fill="none" stroke="#000000" stroke-width="0.5" points="268,-88.5 362,-88.5 "/>
<path fill="none" stroke="#000000" stroke-width="0.5" d="M362,-88.5C368,-88.5 374,-94.5 374,-100.5"/>
<polyline fill="none" stroke="#000000" stroke-width="0.5" points="374,-100.5 374,-147.5 "/>
<path fill="none" stroke="#000000" stroke-width="0.5" d="M374,-147.5C374,-153.5 368,-159.5 362,-159.5"/>
<text text-anchor="start" x="286.5" y="-146.633" font-family="Verdana" font-size="8.00">ConfigStation</text>
<text text-anchor="start" x="266" y="-136.133" font-family="Verdana" font-size="8.00" fill="#8b0000">+ publicID: string</text>
<text text-anchor="start" x="266" y="-126.133" font-family="Verdana" font-size="8.00" fill="#8b0000">+ networkCode: string</text>
<text text-anchor="start" x="266" y="-116.133" font-family="Verdana" font-size="8.00" fill="#8b0000">+ stationCode: string</text>
<text text-anchor="start" x="266" y="-106.133" font-family="Verdana" font-size="8.00" fill="#8b0000">+ enabled: boolean</text>
<text text-anchor="start" x="266" y="-96.1333" font-family="Verdana" font-size="8.00" fill="#8b0000">+ setup: Setup [0..*]</text>
</g>
<!-- ConfigModule&#45;&gt;ConfigStation -->
<g id="edge12" class="edge"><title>ConfigModule&#45;&gt;ConfigStation</title>
<path fill="none" stroke="#000000" d="M315,-201.246C315,-191.256 315,-180.262 315,-169.778"/>
<polygon fill="#000000" stroke="#000000" points="318.5,-169.521 315,-159.521 311.5,-169.521 318.5,-169.521"/>
</g>
<!-- Setup -->
<g id="node6" class="node"><title>Setup</title>
<polygon fill="#fcf2e3" stroke="#fcf2e3" stroke-width="0.5" points="369,-51.5 261,-51.5 249,-39.5 249,-12.5 261,-0.5 369,-0.5 381,-12.5 381,-39.5 369,-51.5"/>
<path fill="#fcf2e3" stroke="#fcf2e3" stroke-width="0.5" d="M261,-51.5C255,-51.5 249,-45.5 249,-39.5"/>
<path fill="#fcf2e3" stroke="#fcf2e3" stroke-width="0.5" d="M249,-12.5C249,-6.5 255,-0.5 261,-0.5"/>
<path fill="#fcf2e3" stroke="#fcf2e3" stroke-width="0.5" d="M369,-0.5C375,-0.5 381,-6.5 381,-12.5"/>
<path fill="#fcf2e3" stroke="#fcf2e3" stroke-width="0.5" d="M381,-39.5C381,-45.5 375,-51.5 369,-51.5"/>
<polyline fill="none" stroke="#000000" stroke-width="0.5" points="369,-51.5 261,-51.5 "/>
<path fill="none" stroke="#000000" stroke-width="0.5" d="M261,-51.5C255,-51.5 249,-45.5 249,-39.5"/>
<polyline fill="none" stroke="#000000" stroke-width="0.5" points="249,-39.5 249,-12.5 "/>
<path fill="none" stroke="#000000" stroke-width="0.5" d="M249,-12.5C249,-6.5 255,-0.5 261,-0.5"/>
<polyline fill="none" stroke="#000000" stroke-width="0.5" points="261,-0.5 369,-0.5 "/>
<path fill="none" stroke="#000000" stroke-width="0.5" d="M369,-0.5C375,-0.5 381,-6.5 381,-12.5"/>
<polyline fill="none" stroke="#000000" stroke-width="0.5" points="381,-12.5 381,-39.5 "/>
<path fill="none" stroke="#000000" stroke-width="0.5" d="M381,-39.5C381,-45.5 375,-51.5 369,-51.5"/>
<text text-anchor="start" x="302.5" y="-38.6333" font-family="Verdana" font-size="8.00">Setup</text>
<text text-anchor="start" x="259" y="-28.1333" font-family="Verdana" font-size="8.00" fill="#8b0000">+ name: string</text>
<text text-anchor="start" x="259" y="-18.1333" font-family="Verdana" font-size="8.00" fill="#8b0000">+ parameterSetID: string</text>
<text text-anchor="start" x="259" y="-8.13333" font-family="Verdana" font-size="8.00" fill="#8b0000">+ enabled: boolean</text>
</g>
<!-- ConfigStation&#45;&gt;Setup -->
<g id="edge14" class="edge"><title>ConfigStation&#45;&gt;Setup</title>
<path fill="none" stroke="#000000" d="M315,-88.3425C315,-79.7049 315,-70.4686 315,-61.8234"/>
<polygon fill="#000000" stroke="#000000" points="318.5,-61.6513 315,-51.6513 311.5,-61.6514 318.5,-61.6513"/>
</g>
<!-- Config -->
<g id="node7" class="node"><title>Config</title>
<polygon fill="#fcf2e3" stroke="#fcf2e3" stroke-width="0.5" points="238,-350 208,-350 196,-338 196,-326 208,-314 238,-314 250,-326 250,-338 238,-350"/>
<path fill="#fcf2e3" stroke="#fcf2e3" stroke-width="0.5" d="M208,-350C202,-350 196,-344 196,-338"/>
<path fill="#fcf2e3" stroke="#fcf2e3" stroke-width="0.5" d="M196,-326C196,-320 202,-314 208,-314"/>
<path fill="#fcf2e3" stroke="#fcf2e3" stroke-width="0.5" d="M238,-314C244,-314 250,-320 250,-326"/>
<path fill="#fcf2e3" stroke="#fcf2e3" stroke-width="0.5" d="M250,-338C250,-344 244,-350 238,-350"/>
<polyline fill="none" stroke="#000000" stroke-width="0.5" points="238,-350 208,-350 "/>
<path fill="none" stroke="#000000" stroke-width="0.5" d="M208,-350C202,-350 196,-344 196,-338"/>
<polyline fill="none" stroke="#000000" stroke-width="0.5" points="196,-338 196,-326 "/>
<path fill="none" stroke="#000000" stroke-width="0.5" d="M196,-326C196,-320 202,-314 208,-314"/>
<polyline fill="none" stroke="#000000" stroke-width="0.5" points="208,-314 238,-314 "/>
<path fill="none" stroke="#000000" stroke-width="0.5" d="M238,-314C244,-314 250,-320 250,-326"/>
<polyline fill="none" stroke="#000000" stroke-width="0.5" points="250,-326 250,-338 "/>
<path fill="none" stroke="#000000" stroke-width="0.5" d="M250,-338C250,-344 244,-350 238,-350"/>
<text text-anchor="middle" x="223" y="-330.3" font-family="Verdana" font-size="8.00">Config</text>
</g>
<!-- Config&#45;&gt;ParameterSet -->
<g id="edge2" class="edge"><title>Config&#45;&gt;ParameterSet</title>
<path fill="none" stroke="#000000" d="M205.261,-313.683C197.278,-305.44 187.441,-295.281 177.569,-285.087"/>
<polygon fill="#000000" stroke="#000000" points="179.871,-282.433 170.4,-277.685 174.842,-287.303 179.871,-282.433"/>
</g>
<!-- Config&#45;&gt;ConfigModule -->
<g id="edge10" class="edge"><title>Config&#45;&gt;ConfigModule</title>
<path fill="none" stroke="#000000" d="M240.739,-313.683C250.079,-304.039 261.956,-291.773 273.459,-279.896"/>
<polygon fill="#000000" stroke="#000000" points="276.104,-282.196 280.546,-272.577 271.075,-277.326 276.104,-282.196"/>
</g>
</g>
</svg>
