<?xml version="1.0" encoding="UTF-8" standalone="no"?>
<!DOCTYPE svg PUBLIC "-//W3C//DTD SVG 1.1//EN"
 "http://www.w3.org/Graphics/SVG/1.1/DTD/svg11.dtd">
<!-- Generated by graphviz version 2.26.3 (20100126.1600)
 -->
<!-- Title: G Pages: 1 -->
<svg width="146pt" height="152pt"
 viewBox="0.00 0.00 146.00 152.00" xmlns="http://www.w3.org/2000/svg" xmlns:xlink="http://www.w3.org/1999/xlink">
<g id="graph1" class="graph" transform="scale(1 1) rotate(0) translate(4 148)">
<title>G</title>
<polygon fill="white" stroke="white" points="-4,5 -4,-148 143,-148 143,5 -4,5"/>
<!-- JournalEntry -->
<g id="node1" class="node"><title>JournalEntry</title>
<polygon fill="#fcf2e3" stroke="#fcf2e3" stroke-width="0.5" points="126,-71.5 12,-71.5 5.90451e-14,-59.5 1.20092e-14,-12.5 12,-0.5 126,-0.5 138,-12.5 138,-59.5 126,-71.5"/>
<path fill="#fcf2e3" stroke="#fcf2e3" stroke-width="0.5" d="M12,-71.5C6,-71.5 6.50497e-14,-65.5 5.90451e-14,-59.5"/>
<path fill="#fcf2e3" stroke="#fcf2e3" stroke-width="0.5" d="M1.20092e-14,-12.5C6.00459e-15,-6.5 6,-0.5 12,-0.5"/>
<path fill="#fcf2e3" stroke="#fcf2e3" stroke-width="0.5" d="M126,-0.5C132,-0.5 138,-6.5 138,-12.5"/>
<path fill="#fcf2e3" stroke="#fcf2e3" stroke-width="0.5" d="M138,-59.5C138,-65.5 132,-71.5 126,-71.5"/>
<polyline fill="none" stroke="#000000" stroke-width="0.5" points="126,-71.5 12,-71.5 "/>
<path fill="none" stroke="#000000" stroke-width="0.5" d="M12,-71.5C6,-71.5 6.50497e-14,-65.5 5.90451e-14,-59.5"/>
<polyline fill="none" stroke="#000000" stroke-width="0.5" points="5.90451e-14,-59.5 1.20092e-14,-12.5 "/>
<path fill="none" stroke="#000000" stroke-width="0.5" d="M1.20092e-14,-12.5C6.00459e-15,-6.5 6,-0.5 12,-0.5"/>
<polyline fill="none" stroke="#000000" stroke-width="0.5" points="12,-0.5 126,-0.5 "/>
<path fill="none" stroke="#000000" stroke-width="0.5" d="M126,-0.5C132,-0.5 138,-6.5 138,-12.5"/>
<polyline fill="none" stroke="#000000" stroke-width="0.5" points="138,-12.5 138,-59.5 "/>
<path fill="none" stroke="#000000" stroke-width="0.5" d="M138,-59.5C138,-65.5 132,-71.5 126,-71.5"/>
<text text-anchor="start" x="42" y="-58.6333" font-family="Verdana" font-size="8.00">JournalEntry</text>
<text text-anchor="start" x="10" y="-48.1333" font-family="Verdana" font-size="8.00" fill="#8b0000">+ created: datetime &#160;[0..1]</text>
<text text-anchor="start" x="10" y="-38.1333" font-family="Verdana" font-size="8.00" fill="#8b0000">+ objectID: string</text>
<text text-anchor="start" x="10" y="-28.1333" font-family="Verdana" font-size="8.00" fill="#8b0000">+ sender: string</text>
<text text-anchor="start" x="10" y="-18.1333" font-family="Verdana" font-size="8.00" fill="#8b0000">+ action: string</text>
<text text-anchor="start" x="10" y="-8.13333" font-family="Verdana" font-size="8.00" fill="#8b0000">+ parameters: string</text>
</g>
<!-- Journaling -->
<g id="node2" class="node"><title>Journaling</title>
<polygon fill="#fcf2e3" stroke="#fcf2e3" stroke-width="0.5" points="87,-144 51,-144 39,-132 39,-120 51,-108 87,-108 99,-120 99,-132 87,-144"/>
<path fill="#fcf2e3" stroke="#fcf2e3" stroke-width="0.5" d="M51,-144C45,-144 39,-138 39,-132"/>
<path fill="#fcf2e3" stroke="#fcf2e3" stroke-width="0.5" d="M39,-120C39,-114 45,-108 51,-108"/>
<path fill="#fcf2e3" stroke="#fcf2e3" stroke-width="0.5" d="M87,-108C93,-108 99,-114 99,-120"/>
<path fill="#fcf2e3" stroke="#fcf2e3" stroke-width="0.5" d="M99,-132C99,-138 93,-144 87,-144"/>
<polyline fill="none" stroke="#000000" stroke-width="0.5" points="87,-144 51,-144 "/>
<path fill="none" stroke="#000000" stroke-width="0.5" d="M51,-144C45,-144 39,-138 39,-132"/>
<polyline fill="none" stroke="#000000" stroke-width="0.5" points="39,-132 39,-120 "/>
<path fill="none" stroke="#000000" stroke-width="0.5" d="M39,-120C39,-114 45,-108 51,-108"/>
<polyline fill="none" stroke="#000000" stroke-width="0.5" points="51,-108 87,-108 "/>
<path fill="none" stroke="#000000" stroke-width="0.5" d="M87,-108C93,-108 99,-114 99,-120"/>
<polyline fill="none" stroke="#000000" stroke-width="0.5" points="99,-120 99,-132 "/>
<path fill="none" stroke="#000000" stroke-width="0.5" d="M99,-132C99,-138 93,-144 87,-144"/>
<text text-anchor="middle" x="69" y="-124.3" font-family="Verdana" font-size="8.00">Journaling</text>
</g>
<!-- Journaling&#45;&gt;JournalEntry -->
<g id="edge2" class="edge"><title>Journaling&#45;&gt;JournalEntry</title>
<path fill="none" stroke="#000000" d="M69,-107.787C69,-100.249 69,-91.1334 69,-81.9647"/>
<polygon fill="#000000" stroke="#000000" points="72.5001,-81.6713 69,-71.6714 65.5001,-81.6714 72.5001,-81.6713"/>
</g>
</g>
</svg>
