<?xml version="1.0" encoding="UTF-8" standalone="no"?>
<!DOCTYPE svg PUBLIC "-//W3C//DTD SVG 1.1//EN"
 "http://www.w3.org/Graphics/SVG/1.1/DTD/svg11.dtd">
<!-- Generated by graphviz version 2.26.3 (20100126.1600)
 -->
<!-- Title: G Pages: 1 -->
<svg width="576pt" height="211pt"
 viewBox="0.00 0.00 576.00 211.27" xmlns="http://www.w3.org/2000/svg" xmlns:xlink="http://www.w3.org/1999/xlink">
<g id="graph1" class="graph" transform="scale(0.99654 0.99654) rotate(0) translate(4 208)">
<title>G</title>
<polygon fill="white" stroke="white" points="-4,5 -4,-208 575,-208 575,5 -4,5"/>
<!-- QCLog -->
<g id="node1" class="node"><title>QCLog</title>
<polygon fill="#fcf2e3" stroke="#fcf2e3" stroke-width="0.5" points="166,-111.5 12,-111.5 7.40214e-14,-99.5 1.12438e-14,-32.5 12,-20.5 166,-20.5 178,-32.5 178,-99.5 166,-111.5"/>
<path fill="#fcf2e3" stroke="#fcf2e3" stroke-width="0.5" d="M12,-111.5C6,-111.5 7.96433e-14,-105.5 7.40214e-14,-99.5"/>
<path fill="#fcf2e3" stroke="#fcf2e3" stroke-width="0.5" d="M1.12438e-14,-32.5C5.62188e-15,-26.5 6,-20.5 12,-20.5"/>
<path fill="#fcf2e3" stroke="#fcf2e3" stroke-width="0.5" d="M166,-20.5C172,-20.5 178,-26.5 178,-32.5"/>
<path fill="#fcf2e3" stroke="#fcf2e3" stroke-width="0.5" d="M178,-99.5C178,-105.5 172,-111.5 166,-111.5"/>
<polyline fill="none" stroke="#000000" stroke-width="0.5" points="166,-111.5 12,-111.5 "/>
<path fill="none" stroke="#000000" stroke-width="0.5" d="M12,-111.5C6,-111.5 7.96433e-14,-105.5 7.40214e-14,-99.5"/>
<polyline fill="none" stroke="#000000" stroke-width="0.5" points="7.40214e-14,-99.5 1.12438e-14,-32.5 "/>
<path fill="none" stroke="#000000" stroke-width="0.5" d="M1.12438e-14,-32.5C5.62188e-15,-26.5 6,-20.5 12,-20.5"/>
<polyline fill="none" stroke="#000000" stroke-width="0.5" points="12,-20.5 166,-20.5 "/>
<path fill="none" stroke="#000000" stroke-width="0.5" d="M166,-20.5C172,-20.5 178,-26.5 178,-32.5"/>
<polyline fill="none" stroke="#000000" stroke-width="0.5" points="178,-32.5 178,-99.5 "/>
<path fill="none" stroke="#000000" stroke-width="0.5" d="M178,-99.5C178,-105.5 172,-111.5 166,-111.5"/>
<text text-anchor="start" x="74.5" y="-98.6333" font-family="Verdana" font-size="8.00">QCLog</text>
<text text-anchor="start" x="10" y="-88.1333" font-family="Verdana" font-size="8.00" fill="#8b0000">+ publicID: string</text>
<text text-anchor="start" x="10" y="-78.1333" font-family="Verdana" font-size="8.00" fill="#8b0000">+ waveformID: WaveformStreamID</text>
<text text-anchor="start" x="10" y="-68.1333" font-family="Verdana" font-size="8.00" fill="#8b0000">+ creatorID: string</text>
<text text-anchor="start" x="10" y="-58.1333" font-family="Verdana" font-size="8.00" fill="#8b0000">+ created: datetime</text>
<text text-anchor="start" x="10" y="-48.1333" font-family="Verdana" font-size="8.00" fill="#8b0000">+ start: datetime</text>
<text text-anchor="start" x="10" y="-38.1333" font-family="Verdana" font-size="8.00" fill="#8b0000">+ end: datetime</text>
<text text-anchor="start" x="10" y="-28.1333" font-family="Verdana" font-size="8.00" fill="#8b0000">+ message: string</text>
</g>
<!-- WaveformQuality -->
<g id="node2" class="node"><title>WaveformQuality</title>
<polygon fill="#fcf2e3" stroke="#fcf2e3" stroke-width="0.5" points="362,-131.5 208,-131.5 196,-119.5 196,-12.5 208,-0.5 362,-0.5 374,-12.5 374,-119.5 362,-131.5"/>
<path fill="#fcf2e3" stroke="#fcf2e3" stroke-width="0.5" d="M208,-131.5C202,-131.5 196,-125.5 196,-119.5"/>
<path fill="#fcf2e3" stroke="#fcf2e3" stroke-width="0.5" d="M196,-12.5C196,-6.5 202,-0.5 208,-0.5"/>
<path fill="#fcf2e3" stroke="#fcf2e3" stroke-width="0.5" d="M362,-0.5C368,-0.5 374,-6.5 374,-12.5"/>
<path fill="#fcf2e3" stroke="#fcf2e3" stroke-width="0.5" d="M374,-119.5C374,-125.5 368,-131.5 362,-131.5"/>
<polyline fill="none" stroke="#000000" stroke-width="0.5" points="362,-131.5 208,-131.5 "/>
<path fill="none" stroke="#000000" stroke-width="0.5" d="M208,-131.5C202,-131.5 196,-125.5 196,-119.5"/>
<polyline fill="none" stroke="#000000" stroke-width="0.5" points="196,-119.5 196,-12.5 "/>
<path fill="none" stroke="#000000" stroke-width="0.5" d="M196,-12.5C196,-6.5 202,-0.5 208,-0.5"/>
<polyline fill="none" stroke="#000000" stroke-width="0.5" points="208,-0.5 362,-0.5 "/>
<path fill="none" stroke="#000000" stroke-width="0.5" d="M362,-0.5C368,-0.5 374,-6.5 374,-12.5"/>
<polyline fill="none" stroke="#000000" stroke-width="0.5" points="374,-12.5 374,-119.5 "/>
<path fill="none" stroke="#000000" stroke-width="0.5" d="M374,-119.5C374,-125.5 368,-131.5 362,-131.5"/>
<text text-anchor="start" x="247.5" y="-118.633" font-family="Verdana" font-size="8.00">WaveformQuality</text>
<text text-anchor="start" x="206" y="-108.133" font-family="Verdana" font-size="8.00" fill="#8b0000">+ waveformID: WaveformStreamID</text>
<text text-anchor="start" x="206" y="-98.1333" font-family="Verdana" font-size="8.00" fill="#8b0000">+ creatorID: string</text>
<text text-anchor="start" x="206" y="-88.1333" font-family="Verdana" font-size="8.00" fill="#8b0000">+ created: datetime</text>
<text text-anchor="start" x="206" y="-78.1333" font-family="Verdana" font-size="8.00" fill="#8b0000">+ start: datetime</text>
<text text-anchor="start" x="206" y="-68.1333" font-family="Verdana" font-size="8.00" fill="#8b0000">+ end: datetime &#160;[0..1]</text>
<text text-anchor="start" x="206" y="-58.1333" font-family="Verdana" font-size="8.00" fill="#8b0000">+ type: string</text>
<text text-anchor="start" x="206" y="-48.1333" font-family="Verdana" font-size="8.00" fill="#8b0000">+ parameter: string</text>
<text text-anchor="start" x="206" y="-38.1333" font-family="Verdana" font-size="8.00" fill="#8b0000">+ value: float</text>
<text text-anchor="start" x="206" y="-28.1333" font-family="Verdana" font-size="8.00" fill="#8b0000">+ lowerUncertainty: float &#160;[0..1]</text>
<text text-anchor="start" x="206" y="-18.1333" font-family="Verdana" font-size="8.00" fill="#8b0000">+ upperUncertainty: float &#160;[0..1]</text>
<text text-anchor="start" x="206" y="-8.13333" font-family="Verdana" font-size="8.00" fill="#8b0000">+ windowLength: float &#160;[0..1]</text>
</g>
<!-- Outage -->
<g id="node3" class="node"><title>Outage</title>
<polygon fill="#fcf2e3" stroke="#fcf2e3" stroke-width="0.5" points="558,-101.5 404,-101.5 392,-89.5 392,-42.5 404,-30.5 558,-30.5 570,-42.5 570,-89.5 558,-101.5"/>
<path fill="#fcf2e3" stroke="#fcf2e3" stroke-width="0.5" d="M404,-101.5C398,-101.5 392,-95.5 392,-89.5"/>
<path fill="#fcf2e3" stroke="#fcf2e3" stroke-width="0.5" d="M392,-42.5C392,-36.5 398,-30.5 404,-30.5"/>
<path fill="#fcf2e3" stroke="#fcf2e3" stroke-width="0.5" d="M558,-30.5C564,-30.5 570,-36.5 570,-42.5"/>
<path fill="#fcf2e3" stroke="#fcf2e3" stroke-width="0.5" d="M570,-89.5C570,-95.5 564,-101.5 558,-101.5"/>
<polyline fill="none" stroke="#000000" stroke-width="0.5" points="558,-101.5 404,-101.5 "/>
<path fill="none" stroke="#000000" stroke-width="0.5" d="M404,-101.5C398,-101.5 392,-95.5 392,-89.5"/>
<polyline fill="none" stroke="#000000" stroke-width="0.5" points="392,-89.5 392,-42.5 "/>
<path fill="none" stroke="#000000" stroke-width="0.5" d="M392,-42.5C392,-36.5 398,-30.5 404,-30.5"/>
<polyline fill="none" stroke="#000000" stroke-width="0.5" points="404,-30.5 558,-30.5 "/>
<path fill="none" stroke="#000000" stroke-width="0.5" d="M558,-30.5C564,-30.5 570,-36.5 570,-42.5"/>
<polyline fill="none" stroke="#000000" stroke-width="0.5" points="570,-42.5 570,-89.5 "/>
<path fill="none" stroke="#000000" stroke-width="0.5" d="M570,-89.5C570,-95.5 564,-101.5 558,-101.5"/>
<text text-anchor="start" x="465.5" y="-88.6333" font-family="Verdana" font-size="8.00">Outage</text>
<text text-anchor="start" x="402" y="-78.1333" font-family="Verdana" font-size="8.00" fill="#8b0000">+ waveformID: WaveformStreamID</text>
<text text-anchor="start" x="402" y="-68.1333" font-family="Verdana" font-size="8.00" fill="#8b0000">+ creatorID: string</text>
<text text-anchor="start" x="402" y="-58.1333" font-family="Verdana" font-size="8.00" fill="#8b0000">+ created: datetime</text>
<text text-anchor="start" x="402" y="-48.1333" font-family="Verdana" font-size="8.00" fill="#8b0000">+ start: datetime</text>
<text text-anchor="start" x="402" y="-38.1333" font-family="Verdana" font-size="8.00" fill="#8b0000">+ end: datetime &#160;[0..1]</text>
</g>
<!-- QualityControl -->
<g id="node4" class="node"><title>QualityControl</title>
<polygon fill="#fcf2e3" stroke="#fcf2e3" stroke-width="0.5" points="312,-204 258,-204 246,-192 246,-180 258,-168 312,-168 324,-180 324,-192 312,-204"/>
<path fill="#fcf2e3" stroke="#fcf2e3" stroke-width="0.5" d="M258,-204C252,-204 246,-198 246,-192"/>
<path fill="#fcf2e3" stroke="#fcf2e3" stroke-width="0.5" d="M246,-180C246,-174 252,-168 258,-168"/>
<path fill="#fcf2e3" stroke="#fcf2e3" stroke-width="0.5" d="M312,-168C318,-168 324,-174 324,-180"/>
<path fill="#fcf2e3" stroke="#fcf2e3" stroke-width="0.5" d="M324,-192C324,-198 318,-204 312,-204"/>
<polyline fill="none" stroke="#000000" stroke-width="0.5" points="312,-204 258,-204 "/>
<path fill="none" stroke="#000000" stroke-width="0.5" d="M258,-204C252,-204 246,-198 246,-192"/>
<polyline fill="none" stroke="#000000" stroke-width="0.5" points="246,-192 246,-180 "/>
<path fill="none" stroke="#000000" stroke-width="0.5" d="M246,-180C246,-174 252,-168 258,-168"/>
<polyline fill="none" stroke="#000000" stroke-width="0.5" points="258,-168 312,-168 "/>
<path fill="none" stroke="#000000" stroke-width="0.5" d="M312,-168C318,-168 324,-174 324,-180"/>
<polyline fill="none" stroke="#000000" stroke-width="0.5" points="324,-180 324,-192 "/>
<path fill="none" stroke="#000000" stroke-width="0.5" d="M324,-192C324,-198 318,-204 312,-204"/>
<text text-anchor="middle" x="285" y="-184.3" font-family="Verdana" font-size="8.00">QualityControl</text>
</g>
<!-- QualityControl&#45;&gt;QCLog -->
<g id="edge2" class="edge"><title>QualityControl&#45;&gt;QCLog</title>
<path fill="none" stroke="#000000" d="M250.558,-167.992C231.575,-157.825 207.725,-144.654 187,-132 179.286,-127.29 171.324,-122.246 163.428,-117.123"/>
<polygon fill="#000000" stroke="#000000" points="165.186,-114.09 154.901,-111.544 161.353,-119.948 165.186,-114.09"/>
</g>
<!-- QualityControl&#45;&gt;WaveformQuality -->
<g id="edge4" class="edge"><title>QualityControl&#45;&gt;WaveformQuality</title>
<path fill="none" stroke="#000000" d="M285,-167.775C285,-160.427 285,-151.419 285,-141.831"/>
<polygon fill="#000000" stroke="#000000" points="288.5,-141.674 285,-131.674 281.5,-141.674 288.5,-141.674"/>
</g>
<!-- QualityControl&#45;&gt;Outage -->
<g id="edge6" class="edge"><title>QualityControl&#45;&gt;Outage</title>
<path fill="none" stroke="#000000" d="M319.442,-167.992C338.425,-157.825 362.275,-144.654 383,-132 395.589,-124.314 408.837,-115.738 421.382,-107.379"/>
<polygon fill="#000000" stroke="#000000" points="423.582,-110.118 429.937,-101.641 419.683,-104.304 423.582,-110.118"/>
</g>
</g>
</svg>
