<?xml version="1.0" encoding="UTF-8" standalone="no"?>
<!DOCTYPE svg PUBLIC "-//W3C//DTD SVG 1.1//EN"
 "http://www.w3.org/Graphics/SVG/1.1/DTD/svg11.dtd">
<!-- Generated by graphviz version 2.26.3 (20100126.1600)
 -->
<!-- Title: G Pages: 1 -->
<svg width="365pt" height="270pt"
 viewBox="0.00 0.00 365.00 270.00" xmlns="http://www.w3.org/2000/svg" xmlns:xlink="http://www.w3.org/1999/xlink">
<g id="graph1" class="graph" transform="scale(1 1) rotate(0) translate(4 266)">
<title>G</title>
<polygon fill="white" stroke="white" points="-4,5 -4,-266 362,-266 362,5 -4,5"/>
<!-- Route -->
<g id="node1" class="node"><title>Route</title>
<polygon fill="#fcf2e3" stroke="#fcf2e3" stroke-width="0.5" points="207,-189.5 45,-189.5 33,-177.5 33,-110.5 45,-98.5 207,-98.5 219,-110.5 219,-177.5 207,-189.5"/>
<path fill="#fcf2e3" stroke="#fcf2e3" stroke-width="0.5" d="M45,-189.5C39,-189.5 33,-183.5 33,-177.5"/>
<path fill="#fcf2e3" stroke="#fcf2e3" stroke-width="0.5" d="M33,-110.5C33,-104.5 39,-98.5 45,-98.5"/>
<path fill="#fcf2e3" stroke="#fcf2e3" stroke-width="0.5" d="M207,-98.5C213,-98.5 219,-104.5 219,-110.5"/>
<path fill="#fcf2e3" stroke="#fcf2e3" stroke-width="0.5" d="M219,-177.5C219,-183.5 213,-189.5 207,-189.5"/>
<polyline fill="none" stroke="#000000" stroke-width="0.5" points="207,-189.5 45,-189.5 "/>
<path fill="none" stroke="#000000" stroke-width="0.5" d="M45,-189.5C39,-189.5 33,-183.5 33,-177.5"/>
<polyline fill="none" stroke="#000000" stroke-width="0.5" points="33,-177.5 33,-110.5 "/>
<path fill="none" stroke="#000000" stroke-width="0.5" d="M33,-110.5C33,-104.5 39,-98.5 45,-98.5"/>
<polyline fill="none" stroke="#000000" stroke-width="0.5" points="45,-98.5 207,-98.5 "/>
<path fill="none" stroke="#000000" stroke-width="0.5" d="M207,-98.5C213,-98.5 219,-104.5 219,-110.5"/>
<polyline fill="none" stroke="#000000" stroke-width="0.5" points="219,-110.5 219,-177.5 "/>
<path fill="none" stroke="#000000" stroke-width="0.5" d="M219,-177.5C219,-183.5 213,-189.5 207,-189.5"/>
<text text-anchor="start" x="113.5" y="-176.633" font-family="Verdana" font-size="8.00">Route</text>
<text text-anchor="start" x="43" y="-166.133" font-family="Verdana" font-size="8.00" fill="#8b0000">+ publicID: string</text>
<text text-anchor="start" x="43" y="-156.133" font-family="Verdana" font-size="8.00" fill="#8b0000">+ networkCode: string</text>
<text text-anchor="start" x="43" y="-146.133" font-family="Verdana" font-size="8.00" fill="#8b0000">+ stationCode: string</text>
<text text-anchor="start" x="43" y="-136.133" font-family="Verdana" font-size="8.00" fill="#8b0000">+ locationCode: string</text>
<text text-anchor="start" x="43" y="-126.133" font-family="Verdana" font-size="8.00" fill="#8b0000">+ streamCode: string</text>
<text text-anchor="start" x="43" y="-116.133" font-family="Verdana" font-size="8.00" fill="#8b0000">+ routeArclink: RouteArclink [0..*]</text>
<text text-anchor="start" x="43" y="-106.133" font-family="Verdana" font-size="8.00" fill="#8b0000">+ routeSeedlink: RouteSeedlink [0..*]</text>
</g>
<!-- RouteArclink -->
<g id="node2" class="node"><title>RouteArclink</title>
<polygon fill="#fcf2e3" stroke="#fcf2e3" stroke-width="0.5" points="108,-61.5 12,-61.5 3.99535e-14,-49.5 9.78452e-15,-12.5 12,-0.5 108,-0.5 120,-12.5 120,-49.5 108,-61.5"/>
<path fill="#fcf2e3" stroke="#fcf2e3" stroke-width="0.5" d="M12,-61.5C6,-61.5 4.48457e-14,-55.5 3.99535e-14,-49.5"/>
<path fill="#fcf2e3" stroke="#fcf2e3" stroke-width="0.5" d="M9.78452e-15,-12.5C4.89226e-15,-6.5 6,-0.5 12,-0.5"/>
<path fill="#fcf2e3" stroke="#fcf2e3" stroke-width="0.5" d="M108,-0.5C114,-0.5 120,-6.5 120,-12.5"/>
<path fill="#fcf2e3" stroke="#fcf2e3" stroke-width="0.5" d="M120,-49.5C120,-55.5 114,-61.5 108,-61.5"/>
<polyline fill="none" stroke="#000000" stroke-width="0.5" points="108,-61.5 12,-61.5 "/>
<path fill="none" stroke="#000000" stroke-width="0.5" d="M12,-61.5C6,-61.5 4.48457e-14,-55.5 3.99535e-14,-49.5"/>
<polyline fill="none" stroke="#000000" stroke-width="0.5" points="3.99535e-14,-49.5 9.78452e-15,-12.5 "/>
<path fill="none" stroke="#000000" stroke-width="0.5" d="M9.78452e-15,-12.5C4.89226e-15,-6.5 6,-0.5 12,-0.5"/>
<polyline fill="none" stroke="#000000" stroke-width="0.5" points="12,-0.5 108,-0.5 "/>
<path fill="none" stroke="#000000" stroke-width="0.5" d="M108,-0.5C114,-0.5 120,-6.5 120,-12.5"/>
<polyline fill="none" stroke="#000000" stroke-width="0.5" points="120,-12.5 120,-49.5 "/>
<path fill="none" stroke="#000000" stroke-width="0.5" d="M120,-49.5C120,-55.5 114,-61.5 108,-61.5"/>
<text text-anchor="start" x="33" y="-48.6333" font-family="Verdana" font-size="8.00">RouteArclink</text>
<text text-anchor="start" x="10" y="-38.1333" font-family="Verdana" font-size="8.00" fill="#8b0000">+ address: string</text>
<text text-anchor="start" x="10" y="-28.1333" font-family="Verdana" font-size="8.00" fill="#8b0000">+ start: datetime</text>
<text text-anchor="start" x="10" y="-18.1333" font-family="Verdana" font-size="8.00" fill="#8b0000">+ end: datetime &#160;[0..1]</text>
<text text-anchor="start" x="10" y="-8.13333" font-family="Verdana" font-size="8.00" fill="#8b0000">+ priority: int &#160;[0..1]</text>
</g>
<!-- Route&#45;&gt;RouteArclink -->
<g id="edge4" class="edge"><title>Route&#45;&gt;RouteArclink</title>
<path fill="none" stroke="#000000" d="M99.3455,-98.3643C93.9254,-89.0844 88.268,-79.3982 82.9882,-70.3586"/>
<polygon fill="#000000" stroke="#000000" points="85.9229,-68.4434 77.8572,-61.5736 79.8784,-71.9739 85.9229,-68.4434"/>
</g>
<!-- RouteSeedlink -->
<g id="node3" class="node"><title>RouteSeedlink</title>
<polygon fill="#fcf2e3" stroke="#fcf2e3" stroke-width="0.5" points="234,-51.5 150,-51.5 138,-39.5 138,-22.5 150,-10.5 234,-10.5 246,-22.5 246,-39.5 234,-51.5"/>
<path fill="#fcf2e3" stroke="#fcf2e3" stroke-width="0.5" d="M150,-51.5C144,-51.5 138,-45.5 138,-39.5"/>
<path fill="#fcf2e3" stroke="#fcf2e3" stroke-width="0.5" d="M138,-22.5C138,-16.5 144,-10.5 150,-10.5"/>
<path fill="#fcf2e3" stroke="#fcf2e3" stroke-width="0.5" d="M234,-10.5C240,-10.5 246,-16.5 246,-22.5"/>
<path fill="#fcf2e3" stroke="#fcf2e3" stroke-width="0.5" d="M246,-39.5C246,-45.5 240,-51.5 234,-51.5"/>
<polyline fill="none" stroke="#000000" stroke-width="0.5" points="234,-51.5 150,-51.5 "/>
<path fill="none" stroke="#000000" stroke-width="0.5" d="M150,-51.5C144,-51.5 138,-45.5 138,-39.5"/>
<polyline fill="none" stroke="#000000" stroke-width="0.5" points="138,-39.5 138,-22.5 "/>
<path fill="none" stroke="#000000" stroke-width="0.5" d="M138,-22.5C138,-16.5 144,-10.5 150,-10.5"/>
<polyline fill="none" stroke="#000000" stroke-width="0.5" points="150,-10.5 234,-10.5 "/>
<path fill="none" stroke="#000000" stroke-width="0.5" d="M234,-10.5C240,-10.5 246,-16.5 246,-22.5"/>
<polyline fill="none" stroke="#000000" stroke-width="0.5" points="246,-22.5 246,-39.5 "/>
<path fill="none" stroke="#000000" stroke-width="0.5" d="M246,-39.5C246,-45.5 240,-51.5 234,-51.5"/>
<text text-anchor="start" x="161.5" y="-38.6333" font-family="Verdana" font-size="8.00">RouteSeedlink</text>
<text text-anchor="start" x="148" y="-28.1333" font-family="Verdana" font-size="8.00" fill="#8b0000">+ address: string</text>
<text text-anchor="start" x="148" y="-18.1333" font-family="Verdana" font-size="8.00" fill="#8b0000">+ priority: int &#160;[0..1]</text>
</g>
<!-- Route&#45;&gt;RouteSeedlink -->
<g id="edge6" class="edge"><title>Route&#45;&gt;RouteSeedlink</title>
<path fill="none" stroke="#000000" d="M152.654,-98.3643C160.107,-85.6045 168.008,-72.0764 174.76,-60.5174"/>
<polygon fill="#000000" stroke="#000000" points="177.876,-62.1221 179.897,-51.7218 171.831,-58.5916 177.876,-62.1221"/>
</g>
<!-- Access -->
<g id="node4" class="node"><title>Access</title>
<polygon fill="#fcf2e3" stroke="#fcf2e3" stroke-width="0.5" points="345,-189.5 249,-189.5 237,-177.5 237,-110.5 249,-98.5 345,-98.5 357,-110.5 357,-177.5 345,-189.5"/>
<path fill="#fcf2e3" stroke="#fcf2e3" stroke-width="0.5" d="M249,-189.5C243,-189.5 237,-183.5 237,-177.5"/>
<path fill="#fcf2e3" stroke="#fcf2e3" stroke-width="0.5" d="M237,-110.5C237,-104.5 243,-98.5 249,-98.5"/>
<path fill="#fcf2e3" stroke="#fcf2e3" stroke-width="0.5" d="M345,-98.5C351,-98.5 357,-104.5 357,-110.5"/>
<path fill="#fcf2e3" stroke="#fcf2e3" stroke-width="0.5" d="M357,-177.5C357,-183.5 351,-189.5 345,-189.5"/>
<polyline fill="none" stroke="#000000" stroke-width="0.5" points="345,-189.5 249,-189.5 "/>
<path fill="none" stroke="#000000" stroke-width="0.5" d="M249,-189.5C243,-189.5 237,-183.5 237,-177.5"/>
<polyline fill="none" stroke="#000000" stroke-width="0.5" points="237,-177.5 237,-110.5 "/>
<path fill="none" stroke="#000000" stroke-width="0.5" d="M237,-110.5C237,-104.5 243,-98.5 249,-98.5"/>
<polyline fill="none" stroke="#000000" stroke-width="0.5" points="249,-98.5 345,-98.5 "/>
<path fill="none" stroke="#000000" stroke-width="0.5" d="M345,-98.5C351,-98.5 357,-104.5 357,-110.5"/>
<polyline fill="none" stroke="#000000" stroke-width="0.5" points="357,-110.5 357,-177.5 "/>
<path fill="none" stroke="#000000" stroke-width="0.5" d="M357,-177.5C357,-183.5 351,-189.5 345,-189.5"/>
<text text-anchor="start" x="282.5" y="-176.633" font-family="Verdana" font-size="8.00">Access</text>
<text text-anchor="start" x="247" y="-166.133" font-family="Verdana" font-size="8.00" fill="#8b0000">+ networkCode: string</text>
<text text-anchor="start" x="247" y="-156.133" font-family="Verdana" font-size="8.00" fill="#8b0000">+ stationCode: string</text>
<text text-anchor="start" x="247" y="-146.133" font-family="Verdana" font-size="8.00" fill="#8b0000">+ locationCode: string</text>
<text text-anchor="start" x="247" y="-136.133" font-family="Verdana" font-size="8.00" fill="#8b0000">+ streamCode: string</text>
<text text-anchor="start" x="247" y="-126.133" font-family="Verdana" font-size="8.00" fill="#8b0000">+ user: string</text>
<text text-anchor="start" x="247" y="-116.133" font-family="Verdana" font-size="8.00" fill="#8b0000">+ start: datetime</text>
<text text-anchor="start" x="247" y="-106.133" font-family="Verdana" font-size="8.00" fill="#8b0000">+ end: datetime &#160;[0..1]</text>
</g>
<!-- Routing -->
<g id="node5" class="node"><title>Routing</title>
<polygon fill="#fcf2e3" stroke="#fcf2e3" stroke-width="0.5" points="226,-262 196,-262 184,-250 184,-238 196,-226 226,-226 238,-238 238,-250 226,-262"/>
<path fill="#fcf2e3" stroke="#fcf2e3" stroke-width="0.5" d="M196,-262C190,-262 184,-256 184,-250"/>
<path fill="#fcf2e3" stroke="#fcf2e3" stroke-width="0.5" d="M184,-238C184,-232 190,-226 196,-226"/>
<path fill="#fcf2e3" stroke="#fcf2e3" stroke-width="0.5" d="M226,-226C232,-226 238,-232 238,-238"/>
<path fill="#fcf2e3" stroke="#fcf2e3" stroke-width="0.5" d="M238,-250C238,-256 232,-262 226,-262"/>
<polyline fill="none" stroke="#000000" stroke-width="0.5" points="226,-262 196,-262 "/>
<path fill="none" stroke="#000000" stroke-width="0.5" d="M196,-262C190,-262 184,-256 184,-250"/>
<polyline fill="none" stroke="#000000" stroke-width="0.5" points="184,-250 184,-238 "/>
<path fill="none" stroke="#000000" stroke-width="0.5" d="M184,-238C184,-232 190,-226 196,-226"/>
<polyline fill="none" stroke="#000000" stroke-width="0.5" points="196,-226 226,-226 "/>
<path fill="none" stroke="#000000" stroke-width="0.5" d="M226,-226C232,-226 238,-232 238,-238"/>
<polyline fill="none" stroke="#000000" stroke-width="0.5" points="238,-238 238,-250 "/>
<path fill="none" stroke="#000000" stroke-width="0.5" d="M238,-250C238,-256 232,-262 226,-262"/>
<text text-anchor="middle" x="211" y="-242.3" font-family="Verdana" font-size="8.00">Routing</text>
</g>
<!-- Routing&#45;&gt;Route -->
<g id="edge2" class="edge"><title>Routing&#45;&gt;Route</title>
<path fill="none" stroke="#000000" d="M195.41,-225.658C188.535,-217.571 180.065,-207.606 171.432,-197.45"/>
<polygon fill="#000000" stroke="#000000" points="173.967,-195.027 164.823,-189.674 168.633,-199.561 173.967,-195.027"/>
</g>
<!-- Routing&#45;&gt;Access -->
<g id="edge8" class="edge"><title>Routing&#45;&gt;Access</title>
<path fill="none" stroke="#000000" d="M226.774,-225.658C233.729,-217.571 242.299,-207.606 251.033,-197.45"/>
<polygon fill="#000000" stroke="#000000" points="253.853,-199.538 257.72,-189.674 248.546,-194.974 253.853,-199.538"/>
</g>
</g>
</svg>
